<?xml version="1.0" encoding="UTF-8" standalone="no"?>
<svg
   xmlns:dc="http://purl.org/dc/elements/1.1/"
   xmlns:cc="http://creativecommons.org/ns#"
   xmlns:rdf="http://www.w3.org/1999/02/22-rdf-syntax-ns#"
   xmlns:svg="http://www.w3.org/2000/svg"
   xmlns="http://www.w3.org/2000/svg"
   xmlns:sodipodi="http://sodipodi.sourceforge.net/DTD/sodipodi-0.dtd"
   xmlns:inkscape="http://www.inkscape.org/namespaces/inkscape"
   width="24"
   height="24"
   viewBox="0 0 19.2 19.2"
   xml:space="preserve"
   id="svg13750"
   sodipodi:version="0.32"
   inkscape:version="0.47 r22583"
   sodipodi:docname="caution.svg"
   version="1.1"><metadata
   id="metadata13771"><rdf:RDF><cc:Work
       rdf:about=""><dc:format>image/svg+xml</dc:format><dc:type
         rdf:resource="http://purl.org/dc/dcmitype/StillImage" /></cc:Work></rdf:RDF></metadata><defs
   id="defs13769"><inkscape:perspective
     sodipodi:type="inkscape:persp3d"
     inkscape:vp_x="0 : 30 : 1"
     inkscape:vp_y="0 : 1000 : 0"
     inkscape:vp_z="60 : 30 : 1"
     inkscape:persp3d-origin="30 : 20 : 1"
     id="perspective17" /></defs><sodipodi:namedview
   inkscape:window-height="514"
   inkscape:window-width="851"
   inkscape:pageshadow="2"
   inkscape:pageopacity="0.0"
   borderopacity="1.0"
   bordercolor="#666666"
   pagecolor="#ffffff"
   id="base"
   inkscape:zoom="5.7833333"
   inkscape:cx="30"
   inkscape:cy="11.317973"
   inkscape:window-x="176"
   inkscape:window-y="176"
   inkscape:current-layer="g13753"
   showgrid="false"
   inkscape:window-maximized="0" />
<g
   transform="matrix(0.41,0,0,0.41,0,-28.8)"
   id="g6">
	<g
   id="Layer_x0020_3"
   style="fill-rule:nonzero;stroke:#000000;stroke-miterlimit:4">
		<g
   id="g13753">
			<path
   style="stroke:#ffffff;stroke-width:6.61119986"
   d="m 41.362614,104.80165 -15.1,-25.899998 c -0.6,-1 -1.7,-1.7 -2.9,-1.6 -1.2,0 -2.3,0.7 -2.9,1.7 L 5.9626134,104.90165 c -0.6,1 -0.6,2.3 0,3.3 0.6,1 1.7,1.6 2.9,1.6 H 38.462614 c 1.2,0 2.3,-0.6 2.9,-1.7 0.6,-1 0.6,-2.3 0,-3.3 z"
   id="path13755" />
			<path
   style="fill:#ffffff;stroke-width:6.61119986;stroke-linecap:round;stroke-linejoin:round"
   d="M 23.362614,80.501652 8.8626134,106.50165 H 38.462614 l -15.1,-25.999998 z"
   id="path13757" />
			<path
   style="fill:#ffff12;fill-opacity:1;stroke:none"
   d="M 23.362614,81.401652 9.9626134,105.60165 H 37.462614 l -14,-24.099998 z"
   id="path13759" />
			<g
   id="g13761"
   transform="translate(-0.33738663,69.501652)">
				<path
   style="stroke:none"
   d="m 24.1,34 c -1.1,0 -1.8,-0.8 -1.8,-1.8 0,-1.1 0.7,-1.8 1.8,-1.8 1.1,0 1.8,0.7 1.8,1.8 0,1 -0.7,1.8 -1.8,1.8 h 0 z m -1.2,-4.7 -0.4,-9.1 h 3.2 l -0.4,9.1 H 23 z"
   id="path13763" />
			</g>
		</g>
	</g>
	<g
   id="crop_x0020_marks"
   style="fill-rule:nonzero;stroke:#000000;stroke-miterlimit:4">
		<path
   style="fill:none;stroke:none"
   d="M 48,48 H 0 V 0 h 48 v 48 z"
   id="path13766" />
	</g>
</g>
</svg>